<svg viewBox="0 0 800 500" xmlns="http://www.w3.org/2000/svg">
  <!-- Fond sombre -->
  <rect width="800" height="500" fill="#0a0a0a"/>
  
  <!-- Grille -->
  <defs>
    <pattern id="grid5" width="20" height="20" patternUnits="userSpaceOnUse">
      <path d="M 20 0 L 0 0 0 20" fill="none" stroke="#1e222d" stroke-width="1"/>
    </pattern>
  </defs>
  <rect width="800" height="500" fill="url(#grid5)"/>
  
  <!-- Titre -->
  <text x="400" y="30" text-anchor="middle" fill="#00d4ff" font-size="20" font-weight="bold">SIGNAL D'ENTRÉE - XAU/USD M15</text>
  
  <!-- Zone de confluence -->
  <rect x="250" y="200" width="300" height="120" fill="rgba(255,193,7,0.15)" stroke="#ffc107" stroke-width="3" stroke-dasharray="10,5"/>
  <text x="400" y="185" text-anchor="middle" fill="#ffc107" font-size="16" font-weight="bold">🎯 ZONE DE CONFLUENCE</text>
  
  <!-- Mouvement baissier initial -->
  <g id="initialMove">
    <rect x="100" y="140" width="10" height="35" fill="#ef5350"/>
    <line x1="105" y1="130" x2="105" y2="140" stroke="#ef5350" stroke-width="2"/>
    <line x1="105" y1="175" x2="105" y2="190" stroke="#ef5350" stroke-width="2"/>
    
    <rect x="120" y="160" width="10" height="40" fill="#ef5350"/>
    <line x1="125" y1="150" x2="125" y2="160" stroke="#ef5350" stroke-width="2"/>
    <line x1="125" y1="200" x2="125" y2="215" stroke="#ef5350" stroke-width="2"/>
    
    <rect x="140" y="180" width="10" height="45" fill="#ef5350"/>
    <line x1="145" y1="170" x2="145" y2="180" stroke="#ef5350" stroke-width="2"/>
    <line x1="145" y1="225" x2="145" y2="240" stroke="#ef5350" stroke-width="2"/>
    
    <rect x="160" y="200" width="10" height="30" fill="#ef5350"/>
    <line x1="165" y1="190" x2="165" y2="200" stroke="#ef5350" stroke-width="2"/>
    <line x1="165" y1="230" x2="165" y2="245" stroke="#ef5350" stroke-width="2"/>
    
    <rect x="180" y="220" width="10" height="35" fill="#ef5350"/>
    <line x1="185" y1="210" x2="185" y2="220" stroke="#ef5350" stroke-width="2"/>
    <line x1="185" y1="255" x2="185" y2="270" stroke="#ef5350" stroke-width="2"/>
    
    <rect x="200" y="240" width="10" height="25" fill="#ef5350"/>
    <line x1="205" y1="230" x2="205" y2="240" stroke="#ef5350" stroke-width="2"/>
    <line x1="205" y1="265" x2="205" y2="280" stroke="#ef5350" stroke-width="2"/>
    
    <rect x="220" y="250" width="10" height="20" fill="#ef5350"/>
    <line x1="225" y1="240" x2="225" y2="250" stroke="#ef5350" stroke-width="2"/>
    <line x1="225" y1="270" x2="225" y2="285" stroke="#ef5350" stroke-width="2"/>
  </g>
  
  <!-- PIN BAR SIGNAL -->
  <g id="pinBarSignal">
    <!-- Corps petit -->
    <rect x="270" y="240" width="15" height="20" fill="#4caf50" stroke="#00e676" stroke-width="4"/>
    
    <!-- Mèche haute courte -->
    <line x1="277" y1="230" x2="277" y2="240" stroke="#4caf50" stroke-width="3"/>
    
    <!-- Mèche basse longue (rejet) -->
    <line x1="277" y1="260" x2="277" y2="350" stroke="#4caf50" stroke-width="6"/>
    
    <!-- Cercle de mise en évidence -->
    <circle cx="277" cy="295" r="40" fill="none" stroke="#00e676" stroke-width="4" stroke-dasharray="8,8"/>
    <text x="277" y="370" text-anchor="middle" fill="#00e676" font-size="14" font-weight="bold">PIN BAR DE REJET</text>
  </g>
  
  <!-- Réaction après Pin Bar -->
  <g id="reaction">
    <!-- Confirmation 1 -->
    <rect x="310" y="220" width="12" height="30" fill="#4caf50"/>
    <line x1="316" y1="210" x2="316" y2="220" stroke="#4caf50" stroke-width="2"/>
    <line x1="316" y1="250" x2="316" y2="265" stroke="#4caf50" stroke-width="2"/>
    
    <!-- Confirmation 2 -->
    <rect x="330" y="200" width="12" height="40" fill="#4caf50"/>
    <line x1="336" y1="190" x2="336" y2="200" stroke="#4caf50" stroke-width="2"/>
    <line x1="336" y1="240" x2="336" y2="255" stroke="#4caf50" stroke-width="2"/>
    
    <!-- Impulsion -->
    <rect x="350" y="180" width="18" height="55" fill="#4caf50" stroke="#00e676" stroke-width="3"/>
    <line x1="359" y1="165" x2="359" y2="180" stroke="#4caf50" stroke-width="4"/>
    <line x1="359" y1="235" x2="359" y2="255" stroke="#4caf50" stroke-width="4"/>
    
    <!-- Continuation -->
    <rect x="380" y="160" width="15" height="50" fill="#4caf50"/>
    <line x1="387" y1="150" x2="387" y2="160" stroke="#4caf50" stroke-width="3"/>
    <line x1="387" y1="210" x2="387" y2="225" stroke="#4caf50" stroke-width="3"/>
    
    <rect x="405" y="140" width="15" height="45" fill="#4caf50"/>
    <line x1="412" y1="130" x2="412" y2="140" stroke="#4caf50" stroke-width="3"/>
    <line x1="412" y1="185" x2="412" y2="200" stroke="#4caf50" stroke-width="3"/>
    
    <!-- Atteinte TP -->
    <rect x="430" y="120" width="15" height="40" fill="#4caf50"/>
    <line x1="437" y1="110" x2="437" y2="120" stroke="#4caf50" stroke-width="3"/>
    <line x1="437" y1="160" x2="437" y2="175" stroke="#4caf50" stroke-width="3"/>
  </g>
  
  <!-- Niveaux de trading -->
  <line x1="80" y1="360" x2="600" y2="360" stroke="#ef5350" stroke-width="3"/>
  <text x="610" y="365" fill="#ef5350" font-size="14" font-weight="bold">STOP LOSS: 2005</text>
  
  <line x1="80" y1="240" x2="600" y2="240" stroke="#ffc107" stroke-width="3" stroke-dasharray="8,4"/>
  <text x="610" y="245" fill="#ffc107" font-size="14" font-weight="bold">ENTRÉE: 2020</text>
  
  <line x1="80" y1="120" x2="600" y2="120" stroke="#4caf50" stroke-width="3"/>
  <text x="610" y="125" fill="#4caf50" font-size="14" font-weight="bold">TAKE PROFIT: 2035</text>
  
  <!-- Point d'entrée -->
  <circle cx="316" cy="235" r="12" fill="#ffc107" stroke="#ffffff" stroke-width="4"/>
  <text x="316" y="241" text-anchor="middle" fill="#ffffff" font-size="10" font-weight="bold">BUY</text>
  
  <!-- Flèches explicatives -->
  <defs>
    <marker id="arrowEntry1" markerWidth="12" markerHeight="8" refX="10" refY="4" orient="auto">
      <polygon points="0 0, 12 4, 0 8" fill="#ff9800"/>
    </marker>
    <marker id="arrowEntry2" markerWidth="12" markerHeight="8" refX="10" refY="4" orient="auto">
      <polygon points="0 0, 12 4, 0 8" fill="#2196f3"/>
    </marker>
  </defs>
  
  <path d="M240,280 L270,250" stroke="#ff9800" stroke-width="4" marker-end="url(#arrowEntry1)"/>
  <text x="245" y="300" text-anchor="middle" fill="#ff9800" font-size="12" font-weight="bold">REJET</text>
  
  <path d="M320,210 Q340,190 359,175" stroke="#2196f3" stroke-width="4" fill="none" stroke-dasharray="5,5" marker-end="url(#arrowEntry2)"/>
  <text x="340" y="180" text-anchor="middle" fill="#2196f3" font-size="12" font-weight="bold">Impulsion</text>
  
  <!-- Informations confluence -->
  <rect x="480" y="200" width="280" height="180" fill="rgba(20,20,20,0.9)" stroke="#00d4ff" stroke-width="2" rx="10"/>
  <text x="620" y="225" text-anchor="middle" fill="#00d4ff" font-size="16" font-weight="bold">✅ CONFLUENCE CHECKLIST</text>
  
  <text x="490" y="250" fill="#4caf50" font-size="12">✓ Order Block validé</text>
  <text x="490" y="270" fill="#4caf50" font-size="12">✓ BOS confirmé</text>
  <text x="490" y="290" fill="#4caf50" font-size="12">✓ Killzone Londres active</text>
  <text x="490" y="310" fill="#4caf50" font-size="12">✓ Pin Bar de rejet</text>
  <text x="490" y="330" fill="#4caf50" font-size="12">✓ R:R = 1:2 (15 pips risque)</text>
  <text x="490" y="350" fill="#ffc107" font-size="14" font-weight="bold">→ SIGNAL VALIDE POUR ENTRÉE</text>
  
  <!-- Analyse du signal -->
  <rect x="480" y="390" width="280" height="90" fill="rgba(255,193,7,0.15)" stroke="#ffc107" stroke-width="2" rx="10"/>
  <text x="620" y="415" text-anchor="middle" fill="#ffc107" font-size="16" font-weight="bold">📊 ANALYSE DU SIGNAL</text>
  
  <text x="490" y="440" fill="#ffffff" font-size="12">• Mèche de rejet = 85 pips</text>
  <text x="490" y="455" fill="#ffffff" font-size="12">• Corps de bougie = 20 pips</text>
  <text x="490" y="470" fill="#ffffff" font-size="12">• Ratio mèche/corps = 4:1 ✅</text>
  
  <!-- Prix sur l'axe Y -->
  <text x="50" y="125" fill="#ffffff" font-size="10">2035</text>
  <text x="50" y="165" fill="#ffffff" font-size="10">2030</text>
  <text x="50" y="205" fill="#ffffff" font-size="10">2025</text>
  <text x="50" y="245" fill="#ffffff" font-size="10">2020</text>
  <text x="50" y="285" fill="#ffffff" font-size="10">2015</text>
  <text x="50" y="325" fill="#ffffff" font-size="10">2010</text>
  <text x="50" y="365" fill="#ffffff" font-size="10">2005</text>
</svg>