<svg viewBox="0 0 800 500" xmlns="http://www.w3.org/2000/svg">
  <!-- Fond sombre -->
  <rect width="800" height="500" fill="#0a0a0a"/>
  
  <!-- Grille -->
  <defs>
    <pattern id="grid2" width="20" height="20" patternUnits="userSpaceOnUse">
      <path d="M 20 0 L 0 0 0 20" fill="none" stroke="#1e222d" stroke-width="1"/>
    </pattern>
  </defs>
  <rect width="800" height="500" fill="url(#grid2)"/>
  
  <!-- Titre -->
  <text x="400" y="30" text-anchor="middle" fill="#00d4ff" font-size="20" font-weight="bold">ORDER BLOCK STRATEGY - GBP/USD H1</text>
  
  <!-- Phase 1: Mouvement baissier -->
  <g id="bearishMove">
    <rect x="100" y="150" width="12" height="40" fill="#ef5350"/>
    <line x1="106" y1="140" x2="106" y2="150" stroke="#ef5350" stroke-width="2"/>
    <line x1="106" y1="190" x2="106" y2="205" stroke="#ef5350" stroke-width="2"/>
    
    <rect x="125" y="170" width="12" height="45" fill="#ef5350"/>
    <line x1="131" y1="160" x2="131" y2="170" stroke="#ef5350" stroke-width="2"/>
    <line x1="131" y1="215" x2="131" y2="230" stroke="#ef5350" stroke-width="2"/>
    
    <rect x="150" y="190" width="12" height="50" fill="#ef5350"/>
    <line x1="156" y1="180" x2="156" y2="190" stroke="#ef5350" stroke-width="2"/>
    <line x1="156" y1="240" x2="156" y2="255" stroke="#ef5350" stroke-width="2"/>
    
    <rect x="175" y="210" width="12" height="35" fill="#ef5350"/>
    <line x1="181" y1="200" x2="181" y2="210" stroke="#ef5350" stroke-width="2"/>
    <line x1="181" y1="245" x2="181" y2="260" stroke="#ef5350" stroke-width="2"/>
    
    <!-- ORDER BLOCK - Dernière bougie baissière -->
    <rect x="200" y="230" width="15" height="45" fill="#ef5350" stroke="#ffeb3b" stroke-width="4"/>
    <line x1="207" y1="220" x2="207" y2="230" stroke="#ef5350" stroke-width="3"/>
    <line x1="207" y1="275" x2="207" y2="290" stroke="#ef5350" stroke-width="3"/>
  </g>
  
  <!-- Zone Order Block -->
  <rect x="195" y="215" width="25" height="65" fill="rgba(255,235,59,0.3)" stroke="#ffeb3b" stroke-width="3" stroke-dasharray="8,4"/>
  <text x="207" y="200" text-anchor="middle" fill="#ffeb3b" font-size="14" font-weight="bold">ORDER BLOCK</text>
  
  <!-- Phase 2: Impulsion haussière -->
  <g id="bullishImpulse">
    <!-- Grande bougie d'impulsion -->
    <rect x="240" y="140" width="18" height="110" fill="#4caf50" stroke="#00e676" stroke-width="3"/>
    <line x1="249" y1="125" x2="249" y2="140" stroke="#4caf50" stroke-width="4"/>
    <line x1="249" y1="250" x2="249" y2="270" stroke="#4caf50" stroke-width="4"/>
    
    <rect x="270" y="120" width="15" height="85" fill="#4caf50"/>
    <line x1="277" y1="110" x2="277" y2="120" stroke="#4caf50" stroke-width="3"/>
    <line x1="277" y1="205" x2="277" y2="220" stroke="#4caf50" stroke-width="3"/>
    
    <rect x="295" y="110" width="15" height="75" fill="#4caf50"/>
    <line x1="302" y1="100" x2="302" y2="110" stroke="#4caf50" stroke-width="3"/>
    <line x1="302" y1="185" x2="302" y2="200" stroke="#4caf50" stroke-width="3"/>
    
    <rect x="320" y="100" width="15" height="65" fill="#4caf50"/>
    <line x1="327" y1="90" x2="327" y2="100" stroke="#4caf50" stroke-width="3"/>
    <line x1="327" y1="165" x2="327" y2="180" stroke="#4caf50" stroke-width="3"/>
  </g>
  
  <!-- Phase 3: Retracement -->
  <g id="retracement">
    <rect x="360" y="120" width="12" height="30" fill="#ef5350"/>
    <line x1="366" y1="110" x2="366" y2="120" stroke="#ef5350" stroke-width="2"/>
    <line x1="366" y1="150" x2="366" y2="165" stroke="#ef5350" stroke-width="2"/>
    
    <rect x="380" y="140" width="12" height="35" fill="#ef5350"/>
    <line x1="386" y1="130" x2="386" y2="140" stroke="#ef5350" stroke-width="2"/>
    <line x1="386" y1="175" x2="386" y2="190" stroke="#ef5350" stroke-width="2"/>
    
    <rect x="400" y="160" width="12" height="40" fill="#ef5350"/>
    <line x1="406" y1="150" x2="406" y2="160" stroke="#ef5350" stroke-width="2"/>
    <line x1="406" y1="200" x2="406" y2="215" stroke="#ef5350" stroke-width="2"/>
    
    <rect x="420" y="180" width="12" height="50" fill="#ef5350"/>
    <line x1="426" y1="170" x2="426" y2="180" stroke="#ef5350" stroke-width="2"/>
    <line x1="426" y1="230" x2="426" y2="245" stroke="#ef5350" stroke-width="2"/>
    
    <!-- Rejet à l'Order Block -->
    <rect x="440" y="210" width="15" height="55" fill="#4caf50" stroke="#00e676" stroke-width="4"/>
    <line x1="447" y1="200" x2="447" y2="210" stroke="#4caf50" stroke-width="3"/>
    <line x1="447" y1="265" x2="447" y2="285" stroke="#4caf50" stroke-width="4"/>
  </g>
  
  <!-- Point d'entrée -->
  <circle cx="447" cy="230" r="12" fill="#00e676" stroke="#ffffff" stroke-width="3"/>
  <text x="447" y="236" text-anchor="middle" fill="#ffffff" font-size="10" font-weight="bold">BUY</text>
  
  <!-- Phase 4: Continuation -->
  <g id="continuation">
    <rect x="470" y="190" width="12" height="40" fill="#4caf50"/>
    <line x1="476" y1="180" x2="476" y2="190" stroke="#4caf50" stroke-width="2"/>
    <line x1="476" y1="230" x2="476" y2="245" stroke="#4caf50" stroke-width="2"/>
    
    <rect x="490" y="170" width="12" height="45" fill="#4caf50"/>
    <line x1="496" y1="160" x2="496" y2="170" stroke="#4caf50" stroke-width="2"/>
    <line x1="496" y1="215" x2="496" y2="230" stroke="#4caf50" stroke-width="2"/>
    
    <rect x="510" y="150" width="12" height="40" fill="#4caf50"/>
    <line x1="516" y1="140" x2="516" y2="150" stroke="#4caf50" stroke-width="2"/>
    <line x1="516" y1="190" x2="516" y2="205" stroke="#4caf50" stroke-width="2"/>
    
    <rect x="530" y="130" width="12" height="45" fill="#4caf50"/>
    <line x1="536" y1="120" x2="536" y2="130" stroke="#4caf50" stroke-width="2"/>
    <line x1="536" y1="175" x2="536" y2="190" stroke="#4caf50" stroke-width="2"/>
  </g>
  
  <!-- Flèches explicatives -->
  <defs>
    <marker id="arrow1" markerWidth="12" markerHeight="8" refX="10" refY="4" orient="auto">
      <polygon points="0 0, 12 4, 0 8" fill="#ff9800"/>
    </marker>
    <marker id="arrow2" markerWidth="12" markerHeight="8" refX="10" refY="4" orient="auto">
      <polygon points="0 0, 12 4, 0 8" fill="#2196f3"/>
    </marker>
  </defs>
  
  <path d="M220,300 L240,260" stroke="#ff9800" stroke-width="3" marker-end="url(#arrow1)"/>
  <text x="225" y="320" text-anchor="middle" fill="#ff9800" font-size="12" font-weight="bold">IMPULSION</text>
  
  <path d="M420,150 Q430,170 447,200" stroke="#2196f3" stroke-width="3" fill="none" stroke-dasharray="4,4" marker-end="url(#arrow2)"/>
  <text x="425" y="140" text-anchor="middle" fill="#2196f3" font-size="12" font-weight="bold">Retour OB</text>
  
  <!-- Informations -->
  <rect x="580" y="320" width="200" height="150" fill="rgba(20,20,20,0.9)" stroke="#00d4ff" stroke-width="2" rx="10"/>
  <text x="680" y="345" text-anchor="middle" fill="#00d4ff" font-size="16" font-weight="bold">📊 ORDER BLOCK SETUP</text>
  
  <text x="590" y="370" fill="#ffeb3b" font-size="12">1️⃣ Dernière bougie baissière</text>
  <text x="590" y="390" fill="#ff9800" font-size="12">2️⃣ Impulsion haussière forte</text>
  <text x="590" y="410" fill="#2196f3" font-size="12">3️⃣ Retour à la zone OB</text>
  <text x="590" y="430" fill="#00e676" font-size="12">4️⃣ Entrée sur rejet</text>
  <text x="590" y="450" fill="#ffffff" font-size="12">✅ Confluence validée</text>
  
  <!-- Prix sur l'axe Y -->
  <text x="50" y="110" fill="#ffffff" font-size="10">1.2650</text>
  <text x="50" y="150" fill="#ffffff" font-size="10">1.2620</text>
  <text x="50" y="190" fill="#ffffff" font-size="10">1.2590</text>
  <text x="50" y="230" fill="#ffffff" font-size="10">1.2560</text>
  <text x="50" y="270" fill="#ffffff" font-size="10">1.2530</text>
  <text x="50" y="310" fill="#ffffff" font-size="10">1.2500</text>
</svg>