<svg viewBox="0 0 800 500" xmlns="http://www.w3.org/2000/svg">
  <!-- Fond sombre -->
  <rect width="800" height="500" fill="#0a0a0a"/>
  
  <!-- Grille -->
  <defs>
    <pattern id="grid4" width="20" height="20" patternUnits="userSpaceOnUse">
      <path d="M 20 0 L 0 0 0 20" fill="none" stroke="#1e222d" stroke-width="1"/>
    </pattern>
  </defs>
  <rect width="800" height="500" fill="url(#grid4)"/>
  
  <!-- Titre -->
  <text x="400" y="30" text-anchor="middle" fill="#00d4ff" font-size="20" font-weight="bold">KILLZONES TRADING - EUR/USD M15</text>
  
  <!-- Session Asiatique (faible volume) -->
  <rect x="80" y="60" width="120" height="320" fill="rgba(158,158,158,0.1)" stroke="#9e9e9e" stroke-width="2" stroke-dasharray="4,4"/>
  <text x="140" y="50" text-anchor="middle" fill="#9e9e9e" font-size="14" font-weight="bold">ASIE</text>
  <text x="140" y="400" text-anchor="middle" fill="#9e9e9e" font-size="10">00:00 - 08:00 GMT</text>
  
  <!-- Bougies asiatiques (range) -->
  <g id="asianSession">
    <rect x="100" y="220" width="8" height="20" fill="#ef5350"/>
    <line x1="104" y1="215" x2="104" y2="220" stroke="#ef5350" stroke-width="1"/>
    <line x1="104" y1="240" x2="104" y2="250" stroke="#ef5350" stroke-width="1"/>
    
    <rect x="115" y="210" width="8" height="25" fill="#4caf50"/>
    <line x1="119" y1="205" x2="119" y2="210" stroke="#4caf50" stroke-width="1"/>
    <line x1="119" y1="235" x2="119" y2="245" stroke="#4caf50" stroke-width="1"/>
    
    <rect x="130" y="215" width="8" height="18" fill="#ef5350"/>
    <line x1="134" y1="210" x2="134" y2="215" stroke="#ef5350" stroke-width="1"/>
    <line x1="134" y1="233" x2="134" y2="243" stroke="#ef5350" stroke-width="1"/>
    
    <rect x="145" y="218" width="8" height="22" fill="#4caf50"/>
    <line x1="149" y1="213" x2="149" y2="218" stroke="#4caf50" stroke-width="1"/>
    <line x1="149" y1="240" x2="149" y2="250" stroke="#4caf50" stroke-width="1"/>
    
    <rect x="160" y="212" width="8" height="16" fill="#ef5350"/>
    <line x1="164" y1="207" x2="164" y2="212" stroke="#ef5350" stroke-width="1"/>
    <line x1="164" y1="228" x2="164" y2="238" stroke="#ef5350" stroke-width="1"/>
    
    <rect x="175" y="220" width="8" height="20" fill="#4caf50"/>
    <line x1="179" y1="215" x2="179" y2="220" stroke="#4caf50" stroke-width="1"/>
    <line x1="179" y1="240" x2="179" y2="250" stroke="#4caf50" stroke-width="1"/>
  </g>
  
  <!-- KILLZONE LONDRES -->
  <rect x="220" y="60" width="180" height="320" fill="rgba(33,150,243,0.2)" stroke="#2196f3" stroke-width="4"/>
  <text x="310" y="50" text-anchor="middle" fill="#2196f3" font-size="16" font-weight="bold">LONDRES KILLZONE</text>
  <text x="310" y="400" text-anchor="middle" fill="#2196f3" font-size="12">08:00 - 11:00 GMT</text>
  
  <!-- Bougies Londres (mouvement directionnel) -->
  <g id="londonSession">
    <!-- Début session -->
    <rect x="240" y="210" width="12" height="30" fill="#4caf50"/>
    <line x1="246" y1="205" x2="246" y2="210" stroke="#4caf50" stroke-width="2"/>
    <line x1="246" y1="240" x2="246" y2="250" stroke="#4caf50" stroke-width="2"/>
    
    <rect x="260" y="200" width="12" height="35" fill="#4caf50"/>
    <line x1="266" y1="195" x2="266" y2="200" stroke="#4caf50" stroke-width="2"/>
    <line x1="266" y1="235" x2="266" y2="245" stroke="#4caf50" stroke-width="2"/>
    
    <!-- Impulsion principale -->
    <rect x="280" y="170" width="15" height="60" fill="#4caf50" stroke="#00e676" stroke-width="3"/>
    <line x1="287" y1="155" x2="287" y2="170" stroke="#4caf50" stroke-width="4"/>
    <line x1="287" y1="230" x2="287" y2="250" stroke="#4caf50" stroke-width="4"/>
    
    <rect x="305" y="160" width="15" height="55" fill="#4caf50"/>
    <line x1="312" y1="150" x2="312" y2="160" stroke="#4caf50" stroke-width="3"/>
    <line x1="312" y1="215" x2="312" y2="230" stroke="#4caf50" stroke-width="3"/>
    
    <!-- Continuation -->
    <rect x="330" y="150" width="12" height="45" fill="#4caf50"/>
    <line x1="336" y1="145" x2="336" y2="150" stroke="#4caf50" stroke-width="2"/>
    <line x1="336" y1="195" x2="336" y2="210" stroke="#4caf50" stroke-width="2"/>
    
    <rect x="350" y="165" width="12" height="35" fill="#ef5350"/>
    <line x1="356" y1="160" x2="356" y2="165" stroke="#ef5350" stroke-width="2"/>
    <line x1="356" y1="200" x2="356" y2="215" stroke="#ef5350" stroke-width="2"/>
    
    <rect x="370" y="145" width="12" height="40" fill="#4caf50"/>
    <line x1="376" y1="140" x2="376" y2="145" stroke="#4caf50" stroke-width="2"/>
    <line x1="376" y1="185" x2="376" y2="200" stroke="#4caf50" stroke-width="2"/>
  </g>
  
  <!-- KILLZONE NEW YORK -->
  <rect x="420" y="60" width="180" height="320" fill="rgba(255,152,0,0.2)" stroke="#ff9800" stroke-width="4"/>
  <text x="510" y="50" text-anchor="middle" fill="#ff9800" font-size="16" font-weight="bold">NEW YORK KILLZONE</text>
  <text x="510" y="400" text-anchor="middle" fill="#ff9800" font-size="12">14:00 - 17:00 GMT</text>
  
  <!-- Bougies New York (forte volatilité) -->
  <g id="nySession">
    <!-- Ouverture explosive -->
    <rect x="440" y="130" width="18" height="80" fill="#4caf50" stroke="#00e676" stroke-width="4"/>
    <line x1="449" y1="115" x2="449" y2="130" stroke="#4caf50" stroke-width="5"/>
    <line x1="449" y1="210" x2="449" y2="230" stroke="#4caf50" stroke-width="5"/>
    
    <rect x="470" y="110" width="18" height="75" fill="#4caf50" stroke="#00e676" stroke-width="3"/>
    <line x1="479" y1="100" x2="479" y2="110" stroke="#4caf50" stroke-width="4"/>
    <line x1="479" y1="185" x2="479" y2="205" stroke="#4caf50" stroke-width="4"/>
    
    <rect x="500" y="100" width="15" height="65" fill="#4caf50"/>
    <line x1="507" y1="90" x2="507" y2="100" stroke="#4caf50" stroke-width="3"/>
    <line x1="507" y1="165" x2="507" y2="185" stroke="#4caf50" stroke-width="3"/>
    
    <!-- Correction -->
    <rect x="525" y="120" width="12" height="40" fill="#ef5350"/>
    <line x1="531" y1="110" x2="531" y2="120" stroke="#ef5350" stroke-width="2"/>
    <line x1="531" y1="160" x2="531" y2="175" stroke="#ef5350" stroke-width="2"/>
    
    <!-- Continuation -->
    <rect x="545" y="105" width="15" height="50" fill="#4caf50"/>
    <line x1="552" y1="95" x2="552" y2="105" stroke="#4caf50" stroke-width="3"/>
    <line x1="552" y1="155" x2="552" y2="170" stroke="#4caf50" stroke-width="3"/>
    
    <rect x="570" y="90" width="15" height="45" fill="#4caf50"/>
    <line x1="577" y1="80" x2="577" y2="90" stroke="#4caf50" stroke-width="3"/>
    <line x1="577" y1="135" x2="577" y2="150" stroke="#4caf50" stroke-width="3"/>
  </g>
  
  <!-- Session soir (faible volume) -->
  <rect x="620" y="60" width="120" height="320" fill="rgba(158,158,158,0.1)" stroke="#9e9e9e" stroke-width="2" stroke-dasharray="4,4"/>
  <text x="680" y="50" text-anchor="middle" fill="#9e9e9e" font-size="14" font-weight="bold">SOIR</text>
  <text x="680" y="400" text-anchor="middle" fill="#9e9e9e" font-size="10">17:00 - 00:00 GMT</text>
  
  <!-- Bougies soir (consolidation) -->
  <g id="eveningSession">
    <rect x="640" y="105" width="8" height="25" fill="#ef5350"/>
    <line x1="644" y1="100" x2="644" y2="105" stroke="#ef5350" stroke-width="1"/>
    <line x1="644" y1="130" x2="644" y2="140" stroke="#ef5350" stroke-width="1"/>
    
    <rect x="660" y="110" width="8" height="20" fill="#4caf50"/>
    <line x1="664" y1="105" x2="664" y2="110" stroke="#4caf50" stroke-width="1"/>
    <line x1="664" y1="130" x2="664" y2="140" stroke="#4caf50" stroke-width="1"/>
    
    <rect x="680" y="108" width="8" height="22" fill="#ef5350"/>
    <line x1="684" y1="103" x2="684" y2="108" stroke="#ef5350" stroke-width="1"/>
    <line x1="684" y1="130" x2="684" y2="140" stroke="#ef5350" stroke-width="1"/>
    
    <rect x="700" y="112" width="8" height="18" fill="#4caf50"/>
    <line x1="704" y1="107" x2="704" y2="112" stroke="#4caf50" stroke-width="1"/>
    <line x1="704" y1="130" x2="704" y2="140" stroke="#4caf50" stroke-width="1"/>
  </g>
  
  <!-- Indicateurs de volume -->
  <defs>
    <marker id="volArrow1" markerWidth="12" markerHeight="8" refX="10" refY="4" orient="auto">
      <polygon points="0 0, 12 4, 0 8" fill="#2196f3"/>
    </marker>
    <marker id="volArrow2" markerWidth="12" markerHeight="8" refX="10" refY="4" orient="auto">
      <polygon points="0 0, 12 4, 0 8" fill="#ff9800"/>
    </marker>
  </defs>
  
  <path d="M287,250 L287,290" stroke="#2196f3" stroke-width="5" marker-end="url(#volArrow1)"/>
  <text x="287" y="310" text-anchor="middle" fill="#2196f3" font-size="12" font-weight="bold">Volume ↑</text>
  
  <path d="M479,205 L479,290" stroke="#ff9800" stroke-width="5" marker-end="url(#volArrow2)"/>
  <text x="479" y="310" text-anchor="middle" fill="#ff9800" font-size="12" font-weight="bold">Max Volume</text>
  
  <!-- Points d'entrée optimaux -->
  <circle cx="287" cy="195" r="10" fill="#00e676" stroke="#ffffff" stroke-width="3"/>
  <text x="287" y="200" text-anchor="middle" fill="#ffffff" font-size="8" font-weight="bold">BUY</text>
  
  <circle cx="479" cy="155" r="10" fill="#00e676" stroke="#ffffff" stroke-width="3"/>
  <text x="479" y="160" text-anchor="middle" fill="#ffffff" font-size="8" font-weight="bold">BUY</text>
  
  <!-- Informations -->
  <rect x="80" y="420" width="660" height="70" fill="rgba(20,20,20,0.9)" stroke="#00d4ff" stroke-width="2" rx="10"/>
  <text x="410" y="445" text-anchor="middle" fill="#00d4ff" font-size="16" font-weight="bold">⏰ KILLZONES OPTIMALES</text>
  
  <text x="100" y="465" fill="#2196f3" font-size="12">🇬🇧 LONDRES: 08:00-11:00 GMT - Première impulsion</text>
  <text x="400" y="465" fill="#ff9800" font-size="12">🇺🇸 NEW YORK: 14:00-17:00 GMT - Maximum de volatilité</text>
  <text x="100" y="480" fill="#9e9e9e" font-size="12">❌ ÉVITER: Sessions Asie et Soir - Faible liquidité</text>
  <text x="400" y="480" fill="#00e676" font-size="12">✅ MEILLEURE LIQUIDITÉ = MEILLEURS SETUPS</text>
  
  <!-- Prix sur l'axe Y -->
  <text x="50" y="100" fill="#ffffff" font-size="10">1.0920</text>
  <text x="50" y="140" fill="#ffffff" font-size="10">1.0900</text>
  <text x="50" y="180" fill="#ffffff" font-size="10">1.0880</text>
  <text x="50" y="220" fill="#ffffff" font-size="10">1.0860</text>
  <text x="50" y="260" fill="#ffffff" font-size="10">1.0840</text>
  <text x="50" y="300" fill="#ffffff" font-size="10">1.0820</text>
</svg>