<svg viewBox="0 0 800 500" xmlns="http://www.w3.org/2000/svg">
  <!-- Fond sombre -->
  <rect width="800" height="500" fill="#0a0a0a"/>
  
  <!-- Grille -->
  <defs>
    <pattern id="grid3" width="20" height="20" patternUnits="userSpaceOnUse">
      <path d="M 20 0 L 0 0 0 20" fill="none" stroke="#1e222d" stroke-width="1"/>
    </pattern>
  </defs>
  <rect width="800" height="500" fill="url(#grid3)"/>
  
  <!-- Titre -->
  <text x="400" y="30" text-anchor="middle" fill="#00d4ff" font-size="20" font-weight="bold">BREAK OF STRUCTURE - USD/JPY H4</text>
  
  <!-- Structure baissière -->
  <g id="bearishStructure">
    <!-- Sommet 1 -->
    <rect x="100" y="140" width="18" height="60" fill="#ef5350"/>
    <line x1="109" y1="125" x2="109" y2="140" stroke="#ef5350" stroke-width="3"/>
    <line x1="109" y1="200" x2="109" y2="220" stroke="#ef5350" stroke-width="3"/>
    
    <!-- Creux 1 -->
    <rect x="150" y="260" width="18" height="50" fill="#4caf50"/>
    <line x1="159" y1="245" x2="159" y2="260" stroke="#4caf50" stroke-width="3"/>
    <line x1="159" y1="310" x2="159" y2="330" stroke="#4caf50" stroke-width="3"/>
    
    <!-- Sommet 2 (Lower High) -->
    <rect x="200" y="160" width="18" height="55" fill="#ef5350"/>
    <line x1="209" y1="145" x2="209" y2="160" stroke="#ef5350" stroke-width="3"/>
    <line x1="209" y1="215" x2="209" y2="235" stroke="#ef5350" stroke-width="3"/>
    
    <!-- Creux 2 (Lower Low) -->
    <rect x="250" y="280" width="18" height="45" fill="#4caf50"/>
    <line x1="259" y1="265" x2="259" y2="280" stroke="#4caf50" stroke-width="3"/>
    <line x1="259" y1="325" x2="259" y2="345" stroke="#4caf50" stroke-width="3"/>
    
    <!-- Sommet 3 (Lower High) -->
    <rect x="300" y="180" width="18" height="50" fill="#ef5350"/>
    <line x1="309" y1="165" x2="309" y2="180" stroke="#ef5350" stroke-width="3"/>
    <line x1="309" y1="230" x2="309" y2="250" stroke="#ef5350" stroke-width="3"/>
  </g>
  
  <!-- Ligne de tendance baissière -->
  <line x1="109" y1="170" x2="309" y2="205" stroke="#ef5350" stroke-width="4" stroke-dasharray="10,5"/>
  <text x="200" y="160" text-anchor="middle" fill="#ef5350" font-size="14" font-weight="bold">Tendance Baissière</text>
  
  <!-- Niveau de résistance à casser -->
  <line x1="80" y1="180" x2="550" y2="180" stroke="#ffeb3b" stroke-width="3" stroke-dasharray="8,4"/>
  <text x="560" y="185" fill="#ffeb3b" font-size="14" font-weight="bold">Résistance 149.00</text>
  
  <!-- BREAK OF STRUCTURE -->
  <g id="bosBreakout">
    <!-- Bougie de cassure massive -->
    <rect x="360" y="110" width="25" height="100" fill="#4caf50" stroke="#00e676" stroke-width="4"/>
    <line x1="372" y1="95" x2="372" y2="110" stroke="#4caf50" stroke-width="5"/>
    <line x1="372" y1="210" x2="372" y2="230" stroke="#4caf50" stroke-width="5"/>
    
    <!-- Confirmation 1 -->
    <rect x="400" y="100" width="18" height="75" fill="#4caf50"/>
    <line x1="409" y1="90" x2="409" y2="100" stroke="#4caf50" stroke-width="3"/>
    <line x1="409" y1="175" x2="409" y2="195" stroke="#4caf50" stroke-width="3"/>
    
    <!-- Confirmation 2 -->
    <rect x="430" y="90" width="18" height="65" fill="#4caf50"/>
    <line x1="439" y1="80" x2="439" y2="90" stroke="#4caf50" stroke-width="3"/>
    <line x1="439" y1="155" x2="439" y2="175" stroke="#4caf50" stroke-width="3"/>
    
    <!-- Petite correction -->
    <rect x="460" y="120" width="15" height="40" fill="#ef5350"/>
    <line x1="467" y1="110" x2="467" y2="120" stroke="#ef5350" stroke-width="2"/>
    <line x1="467" y1="160" x2="467" y2="175" stroke="#ef5350" stroke-width="2"/>
  </g>
  
  <!-- Retracement et entrée -->
  <g id="retracementEntry">
    <!-- Retracement vers ancien niveau -->
    <rect x="490" y="140" width="15" height="45" fill="#ef5350"/>
    <line x1="497" y1="130" x2="497" y2="140" stroke="#ef5350" stroke-width="2"/>
    <line x1="497" y1="185" x2="497" y2="200" stroke="#ef5350" stroke-width="2"/>
    
    <rect x="510" y="160" width="15" height="35" fill="#ef5350"/>
    <line x1="517" y1="150" x2="517" y2="160" stroke="#ef5350" stroke-width="2"/>
    <line x1="517" y1="195" x2="517" y2="210" stroke="#ef5350" stroke-width="2"/>
    
    <!-- Signal d'entrée -->
    <rect x="530" y="150" width="18" height="50" fill="#4caf50" stroke="#00e676" stroke-width="4"/>
    <line x1="539" y1="140" x2="539" y2="150" stroke="#4caf50" stroke-width="3"/>
    <line x1="539" y1="200" x2="539" y2="215" stroke="#4caf50" stroke-width="3"/>
  </g>
  
  <!-- Continuation haussière -->
  <g id="continuation">
    <rect x="560" y="130" width="15" height="45" fill="#4caf50"/>
    <line x1="567" y1="120" x2="567" y2="130" stroke="#4caf50" stroke-width="2"/>
    <line x1="567" y1="175" x2="567" y2="190" stroke="#4caf50" stroke-width="2"/>
    
    <rect x="580" y="110" width="15" height="50" fill="#4caf50"/>
    <line x1="587" y1="100" x2="587" y2="110" stroke="#4caf50" stroke-width="2"/>
    <line x1="587" y1="160" x2="587" y2="175" stroke="#4caf50" stroke-width="2"/>
    
    <rect x="600" y="100" width="15" height="45" fill="#4caf50"/>
    <line x1="607" y1="90" x2="607" y2="100" stroke="#4caf50" stroke-width="2"/>
    <line x1="607" y1="145" x2="607" y2="160" stroke="#4caf50" stroke-width="2"/>
  </g>
  
  <!-- Point d'entrée -->
  <circle cx="539" cy="175" r="15" fill="#00e676" stroke="#ffffff" stroke-width="4"/>
  <text x="539" y="181" text-anchor="middle" fill="#ffffff" font-size="11" font-weight="bold">BUY</text>
  
  <!-- Flèche BOS -->
  <defs>
    <marker id="arrowBOS" markerWidth="15" markerHeight="10" refX="12" refY="5" orient="auto">
      <polygon points="0 0, 15 5, 0 10" fill="#ff9800"/>
    </marker>
    <marker id="arrowRet" markerWidth="12" markerHeight="8" refX="10" refY="4" orient="auto">
      <polygon points="0 0, 12 4, 0 8" fill="#2196f3"/>
    </marker>
  </defs>
  
  <path d="M372,210 L372,130" stroke="#ff9800" stroke-width="6" marker-end="url(#arrowBOS)"/>
  <text x="385" y="170" fill="#ff9800" font-size="18" font-weight="bold">BOS!</text>
  
  <!-- Flèche retracement -->
  <path d="M460,140 Q500,155 530,165" stroke="#2196f3" stroke-width="4" fill="none" stroke-dasharray="6,6" marker-end="url(#arrowRet)"/>
  <text x="495" y="130" text-anchor="middle" fill="#2196f3" font-size="12" font-weight="bold">Retest</text>
  
  <!-- Informations -->
  <rect x="100" y="350" width="300" height="130" fill="rgba(20,20,20,0.9)" stroke="#00d4ff" stroke-width="2" rx="10"/>
  <text x="250" y="375" text-anchor="middle" fill="#00d4ff" font-size="16" font-weight="bold">📊 BOS SETUP</text>
  
  <text x="110" y="400" fill="#ef5350" font-size="12">1️⃣ Structure baissière claire</text>
  <text x="110" y="420" fill="#ff9800" font-size="12">2️⃣ Cassure avec volume</text>
  <text x="110" y="440" fill="#2196f3" font-size="12">3️⃣ Retest de l'ancien niveau</text>
  <text x="110" y="460" fill="#00e676" font-size="12">4️⃣ Entrée sur confirmation</text>
  
  <!-- Informations complémentaires -->
  <rect x="450" y="350" width="320" height="130" fill="rgba(20,20,20,0.9)" stroke="#ffeb3b" stroke-width="2" rx="10"/>
  <text x="610" y="375" text-anchor="middle" fill="#ffeb3b" font-size="16" font-weight="bold">⚡ POINTS CLÉS</text>
  
  <text x="460" y="400" fill="#ffffff" font-size="12">• Cassure nette du niveau de résistance</text>
  <text x="460" y="420" fill="#ffffff" font-size="12">• Volume élevé sur la bougie de cassure</text>
  <text x="460" y="440" fill="#ffffff" font-size="12">• Retest confirme la validité du BOS</text>
  <text x="460" y="460" fill="#ffffff" font-size="12">• Entrée sur rejet du niveau retesté</text>
  
  <!-- Prix sur l'axe Y -->
  <text x="50" y="100" fill="#ffffff" font-size="10">149.80</text>
  <text x="50" y="140" fill="#ffffff" font-size="10">149.40</text>
  <text x="50" y="180" fill="#ffffff" font-size="10">149.00</text>
  <text x="50" y="220" fill="#ffffff" font-size="10">148.60</text>
  <text x="50" y="260" fill="#ffffff" font-size="10">148.20</text>
  <text x="50" y="300" fill="#ffffff" font-size="10">147.80</text>
</svg>